<svg xmlns="http://www.w3.org/2000/svg" xmlns:xlink="http://www.w3.org/1999/xlink" width="678" zoomAndPan="magnify" viewBox="0 0 508.5 182.249993" height="243" preserveAspectRatio="xMidYMid meet" version="1.0"><defs><g/><clipPath id="0155758641"><path d="M 201 77 L 224.507812 77 L 224.507812 81 L 201 81 Z M 201 77 " clip-rule="nonzero"/></clipPath><clipPath id="b8ca67d3fe"><path d="M 107.53125 52.203125 L 200 52.203125 L 200 129.105469 L 107.53125 129.105469 Z M 107.53125 52.203125 " clip-rule="nonzero"/></clipPath></defs><path fill="#5271ff" d="M 195.359375 91.132812 C 195.359375 90.285156 196.046875 89.597656 196.894531 89.597656 L 213.207031 89.597656 C 214.054688 89.597656 214.742188 90.285156 214.742188 91.132812 C 214.742188 91.980469 214.054688 92.667969 213.207031 92.667969 L 196.894531 92.667969 C 196.046875 92.667969 195.359375 91.980469 195.359375 91.132812 " fill-opacity="1" fill-rule="nonzero"/><path fill="#5271ff" d="M 196.894531 65.324219 L 213.207031 65.324219 C 214.054688 65.324219 214.742188 66.011719 214.742188 66.859375 C 214.742188 67.703125 214.054688 68.390625 213.207031 68.390625 L 196.894531 68.390625 C 196.046875 68.390625 195.359375 67.703125 195.359375 66.859375 C 195.359375 66.011719 196.046875 65.324219 196.894531 65.324219 " fill-opacity="1" fill-rule="nonzero"/><g clip-path="url(#0155758641)"><path fill="#5271ff" d="M 223.265625 80.527344 L 203.066406 80.527344 C 202.21875 80.527344 201.535156 79.84375 201.535156 78.996094 C 201.535156 78.148438 202.21875 77.460938 203.066406 77.460938 L 223.265625 77.460938 C 224.113281 77.460938 224.796875 78.148438 224.796875 78.996094 C 224.796875 79.84375 224.113281 80.527344 223.265625 80.527344 " fill-opacity="1" fill-rule="nonzero"/></g><path fill="#5271ff" d="M 124.402344 115.253906 C 126.128906 115.253906 127.527344 116.652344 127.527344 118.378906 C 127.527344 120.105469 126.128906 121.503906 124.402344 121.503906 C 122.675781 121.503906 121.277344 120.105469 121.277344 118.378906 C 121.277344 116.652344 122.675781 115.253906 124.402344 115.253906 " fill-opacity="1" fill-rule="nonzero"/><path fill="#5271ff" d="M 182.75 115.253906 C 184.476562 115.253906 185.875 116.652344 185.875 118.378906 C 185.875 120.105469 184.476562 121.503906 182.75 121.503906 C 181.023438 121.503906 179.625 120.105469 179.625 118.378906 C 179.625 116.652344 181.023438 115.253906 182.75 115.253906 " fill-opacity="1" fill-rule="nonzero"/><path fill="#5271ff" d="M 117.988281 96.976562 L 135.339844 96.976562 L 135.339844 79.621094 L 129.339844 79.621094 L 117.988281 90.976562 Z M 138.410156 76.554688 L 138.410156 100.042969 L 114.921875 100.042969 L 114.921875 89.707031 L 128.070312 76.554688 L 138.410156 76.554688 " fill-opacity="1" fill-rule="nonzero"/><g clip-path="url(#b8ca67d3fe)"><path fill="#5271ff" d="M 110.308594 115.359375 C 110.308594 116.15625 110.953125 116.800781 111.746094 116.800781 L 113.617188 116.800781 C 114.386719 111.53125 118.921875 107.46875 124.402344 107.46875 C 129.882812 107.46875 134.417969 111.53125 135.1875 116.800781 L 171.964844 116.800781 C 172.734375 111.53125 177.269531 107.46875 182.75 107.46875 C 188.230469 107.46875 192.761719 111.53125 193.53125 116.800781 C 195.363281 116.785156 196.847656 115.292969 196.847656 113.460938 L 196.847656 105.28125 L 143.082031 105.28125 L 143.082031 71.941406 L 131.570312 71.941406 C 128.027344 71.941406 124.703125 73.320312 122.195312 75.824219 L 114.1875 83.832031 C 111.683594 86.335938 110.308594 89.664062 110.308594 93.203125 Z M 124.402344 126.222656 C 128.726562 126.222656 132.246094 122.703125 132.246094 118.378906 C 132.246094 114.054688 128.726562 110.535156 124.402344 110.535156 C 120.074219 110.535156 116.558594 114.054688 116.558594 118.378906 C 116.558594 122.703125 120.074219 126.222656 124.402344 126.222656 Z M 182.75 126.222656 C 187.074219 126.222656 190.59375 122.703125 190.59375 118.378906 C 190.59375 114.054688 187.074219 110.535156 182.75 110.535156 C 178.425781 110.535156 174.90625 114.054688 174.90625 118.378906 C 174.90625 122.703125 178.425781 126.222656 182.75 126.222656 Z M 120.027344 73.65625 C 123.109375 70.570312 127.210938 68.875 131.570312 68.875 L 143.082031 68.875 L 143.082031 57.054688 C 143.082031 54.378906 145.257812 52.203125 147.933594 52.203125 L 195.0625 52.203125 C 197.738281 52.203125 199.914062 54.378906 199.914062 57.054688 L 199.914062 61.335938 C 199.914062 62.183594 199.226562 62.871094 198.378906 62.871094 C 197.53125 62.871094 196.847656 62.183594 196.847656 61.335938 L 196.847656 57.054688 C 196.847656 56.070312 196.046875 55.269531 195.0625 55.269531 L 147.933594 55.269531 C 146.949219 55.269531 146.148438 56.070312 146.148438 57.054688 L 146.148438 102.214844 L 196.847656 102.214844 L 196.847656 97.402344 C 196.847656 96.554688 197.53125 95.867188 198.378906 95.867188 C 199.226562 95.867188 199.914062 96.554688 199.914062 97.402344 L 199.914062 113.460938 C 199.914062 116.980469 197.058594 119.84375 193.546875 119.867188 C 192.816406 125.179688 188.261719 129.289062 182.75 129.289062 C 177.238281 129.289062 172.683594 125.179688 171.953125 119.871094 L 135.199219 119.871094 C 134.46875 125.179688 129.910156 129.289062 124.402344 129.289062 C 118.890625 129.289062 114.335938 125.179688 113.605469 119.871094 L 111.746094 119.871094 C 109.261719 119.871094 107.238281 117.847656 107.238281 115.359375 L 107.238281 93.203125 C 107.238281 88.84375 108.9375 84.746094 112.019531 81.664062 L 120.027344 73.65625 " fill-opacity="1" fill-rule="nonzero"/></g><g fill="#5271ff" fill-opacity="1"><g transform="translate(223.213146, 93.773766)"><g><path d="M 8.328125 0.28125 L 7.0625 0.0625 L 5.859375 -0.375 L 5.234375 -0.5625 L 4.640625 -0.84375 L 4.21875 -1.296875 L 3.125 -1.984375 L 2.734375 -2.453125 L 2.296875 -2.84375 L 1.703125 -4 L 1.515625 -4.5625 L 1.390625 -5.171875 L 1.296875 -5.796875 L 1.546875 -6.4375 L 2.109375 -6.6875 L 4.5 -6.8125 L 5.078125 -6.71875 L 5.640625 -6.78125 L 6.265625 -6.53125 L 7.28125 -5.421875 L 7.8125 -5.078125 L 8.328125 -4.796875 L 9.921875 -4.640625 L 10.46875 -4.734375 L 11.4375 -4.796875 L 12.484375 -5.265625 L 12.890625 -5.734375 L 13.140625 -6.5 L 12.953125 -7.28125 L 12.546875 -7.65625 L 11.4375 -8.1875 L 6.5625 -8.734375 L 5.453125 -9.109375 L 3.34375 -10.25 L 2.203125 -11.6875 L 1.703125 -12.765625 L 1.484375 -14 L 1.453125 -14.96875 L 1.546875 -16.484375 L 2.109375 -18.1875 L 3.1875 -19.640625 L 4.671875 -20.671875 L 5.734375 -21.28125 L 6.90625 -21.65625 L 7.46875 -21.75 L 8.09375 -21.78125 L 8.765625 -21.96875 L 11.15625 -21.90625 L 12.359375 -21.65625 L 14.09375 -21.0625 L 16.140625 -19.640625 L 16.828125 -18.71875 L 17.6875 -17.109375 L 17.75 -16.515625 L 17.875 -15.921875 L 17.625 -15.40625 L 17.046875 -14.96875 L 16.484375 -15.03125 L 15.859375 -15.03125 L 15.03125 -15.09375 L 13.578125 -14.96875 L 12.890625 -15.375 L 12.421875 -15.984375 L 11.890625 -16.421875 L 11.34375 -16.796875 L 10.78125 -16.953125 L 9.796875 -17.078125 L 8.796875 -17.046875 L 8.234375 -16.921875 L 7.75 -16.640625 L 7.28125 -16.296875 L 6.90625 -15.890625 L 6.75 -15.0625 L 6.875 -14.125 L 7.34375 -13.6875 L 8.484375 -13.140625 L 10.125 -12.796875 L 11.03125 -12.796875 L 11.6875 -12.671875 L 12.296875 -12.640625 L 12.921875 -12.546875 L 15.34375 -11.8125 L 15.890625 -11.46875 L 16.390625 -11.21875 L 16.953125 -10.71875 L 17.75 -9.796875 L 18.09375 -9.296875 L 18.5625 -7.5 L 18.625 -6.5 L 18.4375 -4.953125 L 18.25 -4.4375 L 18.0625 -3.875 L 17.71875 -3.1875 L 17.40625 -2.75 L 16.515625 -1.828125 L 14.40625 -0.5625 L 13.8125 -0.28125 L 13.265625 -0.21875 L 12.640625 0.03125 L 12.015625 0.125 L 11.40625 0.28125 L 10.78125 0.34375 Z M 8.328125 0.28125 "/></g></g></g><g fill="#5271ff" fill-opacity="1"><g transform="translate(242.978254, 93.773766)"><g><path d="M 10.375 0.125 L 9.765625 -0.03125 L 8.234375 -0.03125 L 7.3125 0.09375 L 6.078125 -0.03125 L 5.453125 0.03125 L 4.5 0.0625 L 3.59375 -0.0625 L 3 0 L 2.421875 0 L 1.796875 -0.28125 L 1.484375 -1.109375 L 1.578125 -3.96875 L 1.921875 -4.53125 L 3.96875 -5.140625 L 4.3125 -6.078125 L 4.21875 -15.578125 L 3.9375 -16.421875 L 3.34375 -16.796875 L 2.734375 -16.796875 L 2.046875 -17.140625 L 1.703125 -17.75 L 1.765625 -18.34375 L 1.671875 -20.640625 L 1.984375 -21.375 L 2.609375 -21.6875 L 3.3125 -21.6875 L 3.90625 -21.59375 L 6.4375 -21.59375 L 7.0625 -21.71875 L 7.625 -21.65625 L 11.375 -21.65625 L 11.921875 -21.3125 L 12.296875 -20.734375 L 12.265625 -17.65625 L 11.953125 -17.171875 L 11.3125 -16.921875 L 10.6875 -16.828125 L 10.015625 -16.546875 L 9.796875 -15.828125 L 9.671875 -12.703125 L 9.796875 -10.46875 L 9.734375 -9.796875 L 9.765625 -6.375 L 9.671875 -5.796875 L 10.03125 -5.078125 L 10.78125 -4.828125 L 11.4375 -4.828125 L 12.109375 -4.5 L 12.484375 -3.90625 L 12.484375 -0.84375 L 12.171875 -0.25 L 11.625 0.0625 Z M 10.375 0.125 "/></g></g></g><g fill="#5271ff" fill-opacity="1"><g transform="translate(257.043081, 93.773766)"><g><path d="M 8.328125 0.28125 L 7.0625 0.0625 L 5.859375 -0.375 L 5.234375 -0.5625 L 4.640625 -0.84375 L 4.21875 -1.296875 L 3.125 -1.984375 L 2.734375 -2.453125 L 2.296875 -2.84375 L 1.703125 -4 L 1.515625 -4.5625 L 1.390625 -5.171875 L 1.296875 -5.796875 L 1.546875 -6.4375 L 2.109375 -6.6875 L 4.5 -6.8125 L 5.078125 -6.71875 L 5.640625 -6.78125 L 6.265625 -6.53125 L 7.28125 -5.421875 L 7.8125 -5.078125 L 8.328125 -4.796875 L 9.921875 -4.640625 L 10.46875 -4.734375 L 11.4375 -4.796875 L 12.484375 -5.265625 L 12.890625 -5.734375 L 13.140625 -6.5 L 12.953125 -7.28125 L 12.546875 -7.65625 L 11.4375 -8.1875 L 6.5625 -8.734375 L 5.453125 -9.109375 L 3.34375 -10.25 L 2.203125 -11.6875 L 1.703125 -12.765625 L 1.484375 -14 L 1.453125 -14.96875 L 1.546875 -16.484375 L 2.109375 -18.1875 L 3.1875 -19.640625 L 4.671875 -20.671875 L 5.734375 -21.28125 L 6.90625 -21.65625 L 7.46875 -21.75 L 8.09375 -21.78125 L 8.765625 -21.96875 L 11.15625 -21.90625 L 12.359375 -21.65625 L 14.09375 -21.0625 L 16.140625 -19.640625 L 16.828125 -18.71875 L 17.6875 -17.109375 L 17.75 -16.515625 L 17.875 -15.921875 L 17.625 -15.40625 L 17.046875 -14.96875 L 16.484375 -15.03125 L 15.859375 -15.03125 L 15.03125 -15.09375 L 13.578125 -14.96875 L 12.890625 -15.375 L 12.421875 -15.984375 L 11.890625 -16.421875 L 11.34375 -16.796875 L 10.78125 -16.953125 L 9.796875 -17.078125 L 8.796875 -17.046875 L 8.234375 -16.921875 L 7.75 -16.640625 L 7.28125 -16.296875 L 6.90625 -15.890625 L 6.75 -15.0625 L 6.875 -14.125 L 7.34375 -13.6875 L 8.484375 -13.140625 L 10.125 -12.796875 L 11.03125 -12.796875 L 11.6875 -12.671875 L 12.296875 -12.640625 L 12.921875 -12.546875 L 15.34375 -11.8125 L 15.890625 -11.46875 L 16.390625 -11.21875 L 16.953125 -10.71875 L 17.75 -9.796875 L 18.09375 -9.296875 L 18.5625 -7.5 L 18.625 -6.5 L 18.4375 -4.953125 L 18.25 -4.4375 L 18.0625 -3.875 L 17.71875 -3.1875 L 17.40625 -2.75 L 16.515625 -1.828125 L 14.40625 -0.5625 L 13.8125 -0.28125 L 13.265625 -0.21875 L 12.640625 0.03125 L 12.015625 0.125 L 11.40625 0.28125 L 10.78125 0.34375 Z M 8.328125 0.28125 "/></g></g></g><g fill="#5271ff" fill-opacity="1"><g transform="translate(276.808189, 93.773766)"><g><path d="M 18.28125 0.0625 L 17.625 0 L 16.921875 -0.3125 L 16.296875 -0.78125 L 16.109375 -1.328125 L 15.828125 -1.921875 L 15.25 -2.421875 L 14.5625 -2.75 L 13.875 -2.671875 L 13.328125 -2.734375 L 10.28125 -2.703125 L 9.734375 -2.78125 L 8.421875 -2.671875 L 7.84375 -2.75 L 7.1875 -2.421875 L 6.59375 -1.828125 L 6.046875 -0.8125 L 5.453125 -0.25 L 4.734375 -0.03125 L 3 0.03125 L 2.390625 -0.03125 L 1.171875 0.03125 L 0.5625 -0.15625 L 0.40625 -0.921875 L 0.59375 -1.546875 L 1.203125 -2.78125 L 1.359375 -3.34375 L 1.703125 -3.78125 L 2.171875 -5.015625 L 2.734375 -6.015625 L 2.9375 -6.625 L 3.25 -7.09375 L 3.4375 -7.78125 L 6.59375 -14.40625 L 6.78125 -14.96875 L 7.125 -15.546875 L 7.28125 -16.171875 L 7.625 -16.640625 L 8.859375 -19.484375 L 9.140625 -19.921875 L 9.359375 -20.546875 L 9.640625 -21.0625 L 10.1875 -21.59375 L 11.1875 -21.9375 L 12.203125 -21.625 L 12.734375 -21.0625 L 13.328125 -19.984375 L 13.515625 -19.421875 L 13.84375 -18.875 L 14.03125 -18.25 L 16.078125 -13.9375 L 16.296875 -13.296875 L 16.953125 -12.140625 L 17.140625 -11.65625 L 17.40625 -11.1875 L 17.59375 -10.5 L 17.90625 -9.921875 L 18.21875 -9.453125 L 19.390625 -6.625 L 20.015625 -5.515625 L 20.453125 -4.375 L 21.28125 -2.75 L 21.75 -1.609375 L 21.96875 -0.90625 L 21.875 -0.15625 L 21 0 L 20.046875 0.03125 L 19.453125 -0.03125 Z M 11.25 -7.65625 L 12.484375 -7.6875 L 12.953125 -7.9375 L 13.078125 -8.484375 L 11.625 -11.890625 L 11.1875 -12.140625 L 10.84375 -11.859375 L 9.390625 -8.515625 L 9.421875 -7.9375 L 9.921875 -7.71875 L 10.625 -7.78125 Z M 11.25 -7.65625 "/></g></g></g><g fill="#5271ff" fill-opacity="1"><g transform="translate(299.299512, 93.773766)"><g><path d="M 2.265625 -0.875 L 2.359375 -3.40625 L 2.265625 -3.96875 L 2.265625 -13.234375 L 2.328125 -13.84375 L 2.296875 -14.59375 L 2.359375 -15.765625 L 2.234375 -17.046875 L 2.296875 -17.65625 L 2.234375 -20.078125 L 2.296875 -20.765625 L 2.609375 -21.375 L 3.28125 -21.6875 L 6.359375 -21.625 L 7.03125 -21.6875 L 7.6875 -21.34375 L 7.96875 -20.765625 L 8.03125 -19.609375 L 7.96875 -18.9375 L 7.9375 -16.515625 L 7.96875 -15.953125 L 7.96875 -15.3125 L 8 -14.625 L 8.296875 -14.03125 L 8.890625 -13.75 L 10.71875 -13.71875 L 11.28125 -13.78125 L 11.921875 -13.71875 L 13.140625 -13.84375 L 13.71875 -13.75 L 14.34375 -14.09375 L 14.6875 -14.71875 L 14.71875 -17.140625 L 14.625 -17.71875 L 14.6875 -19 L 14.625 -19.515625 L 14.65625 -20.703125 L 14.96875 -21.4375 L 15.859375 -21.65625 L 19.421875 -21.625 L 20.046875 -21.375 L 20.328125 -20.734375 L 20.296875 -5.171875 L 20.390625 -4.671875 L 20.296875 -3.6875 L 20.359375 -0.875 L 19.984375 -0.34375 L 19.390625 0.0625 L 18.125 -0.03125 L 17.5 0.03125 L 15.890625 0.03125 L 15 -0.375 L 14.65625 -0.875 L 14.625 -7.71875 L 14.3125 -8.296875 L 13.71875 -8.640625 L 13.171875 -8.640625 L 12.515625 -8.734375 L 8.859375 -8.703125 L 8.203125 -8.296875 L 7.9375 -7.65625 L 7.9375 -2.171875 L 8 -1.484375 L 7.9375 -0.90625 L 7.6875 -0.3125 L 7.03125 0.0625 L 5.734375 0.03125 L 5.078125 0.09375 L 3.84375 0.03125 L 3.21875 0.0625 L 2.640625 -0.28125 Z M 2.265625 -0.875 "/></g></g></g><g fill="#5271ff" fill-opacity="1"><g transform="translate(321.976716, 93.773766)"><g><path d="M 7.09375 -0.921875 L 7.125 -2.109375 L 7.0625 -2.703125 L 7.125 -5.078125 L 7.0625 -5.703125 L 7.09375 -8.15625 L 6.9375 -8.984375 L 6.625 -9.859375 L 4.25 -13.640625 L 4 -14.1875 L 3.25 -15.1875 L 1.984375 -17.375 L 1.640625 -17.8125 L 0.3125 -20.015625 L 0 -20.734375 L 0.09375 -21.40625 L 0.71875 -21.71875 L 2.140625 -21.625 L 3.71875 -21.75 L 4.25 -21.625 L 4.890625 -21.65625 L 5.609375 -21.375 L 6.265625 -20.796875 L 7.71875 -18.0625 L 8.0625 -17.53125 L 8.984375 -15.796875 L 9.328125 -15.3125 L 9.671875 -14.71875 L 10.015625 -14.71875 L 10.40625 -15.25 L 10.9375 -16.421875 L 11.25 -16.953125 L 11.5625 -17.59375 L 12.234375 -18.59375 L 12.609375 -19.515625 L 13.421875 -20.859375 L 13.96875 -21.375 L 14.8125 -21.6875 L 15.34375 -21.65625 L 16.546875 -21.6875 L 17.171875 -21.59375 L 17.8125 -21.65625 L 19.03125 -21.625 L 19.578125 -21.5 L 19.703125 -20.828125 L 19.359375 -20.046875 L 17.375 -16.765625 L 17.015625 -16.328125 L 13.078125 -9.859375 L 12.765625 -9.046875 L 12.578125 -8.15625 L 12.609375 -6.359375 L 12.515625 -5.796875 L 12.515625 -5.171875 L 12.578125 -4.5625 L 12.484375 -0.953125 L 12.234375 -0.3125 L 11.625 0.03125 L 11 -0.03125 L 10.125 0.03125 L 9.171875 -0.03125 L 8.609375 0.03125 L 8 0 L 7.34375 -0.25 Z M 7.09375 -0.921875 "/></g></g></g><g fill="#5271ff" fill-opacity="1"><g transform="translate(341.679867, 93.773766)"><g><path d="M 10.75 0.3125 L 10.125 0.125 L 8.359375 -0.1875 L 7.84375 -0.34375 L 5.703125 -1.578125 L 4.671875 -2.296875 L 3.4375 -3.59375 L 2.734375 -4.640625 L 2.171875 -5.703125 L 1.296875 -8.609375 L 1.140625 -10.78125 L 1.171875 -11.78125 L 1.734375 -14.84375 L 2.875 -17.171875 L 3.21875 -17.625 L 3.6875 -18.09375 L 4.09375 -18.59375 L 5.453125 -19.796875 L 7.15625 -20.859375 L 9.546875 -21.71875 L 10.125 -21.75 L 10.65625 -21.9375 L 11.28125 -21.96875 L 14.15625 -21.84375 L 15.609375 -21.4375 L 16.265625 -21.3125 L 18.4375 -20.171875 L 18.90625 -19.796875 L 19.390625 -19.328125 L 20.078125 -18.78125 L 21.3125 -16.984375 L 21.59375 -16.421875 L 22.03125 -15.15625 L 21.84375 -14.625 L 21.0625 -14.28125 L 19.578125 -14.375 L 18.65625 -14.25 L 17.6875 -14.28125 L 16.953125 -14.5 L 16.296875 -15.03125 L 15.890625 -15.546875 L 15.515625 -15.953125 L 14.9375 -16.359375 L 14.34375 -16.609375 L 13.203125 -16.921875 L 11.3125 -16.859375 L 10.78125 -16.609375 L 10.1875 -16.546875 L 9.671875 -16.265625 L 8.578125 -15.5 L 7.625 -14.03125 L 7.125 -12.921875 L 6.90625 -11.71875 L 6.9375 -9.921875 L 7.09375 -8.921875 L 7.34375 -8.03125 L 7.9375 -6.90625 L 8.265625 -6.46875 L 9.203125 -5.609375 L 10.875 -4.921875 L 12.453125 -4.734375 L 13.265625 -4.765625 L 14.46875 -5.046875 L 15.5 -5.453125 L 15.921875 -5.796875 L 16.390625 -6.328125 L 16.703125 -6.84375 L 16.609375 -7.375 L 16.140625 -7.59375 L 15.578125 -7.6875 L 14.03125 -7.5625 L 13.140625 -7.625 L 12.578125 -7.96875 L 12.296875 -8.453125 L 12.296875 -11.40625 L 12.578125 -11.984375 L 13.203125 -12.296875 L 14.375 -12.390625 L 16.234375 -12.265625 L 20.421875 -12.359375 L 21.0625 -12.265625 L 21.71875 -12.234375 L 22.3125 -11.921875 L 22.625 -11.40625 L 22.6875 -10.21875 L 22.625 -9.640625 L 22.625 -9.015625 L 22.5 -8.453125 L 22.46875 -7.9375 L 22.21875 -6.75 L 21.59375 -4.921875 L 21.21875 -4.5 L 20.953125 -3.9375 L 20.640625 -3.40625 L 20.265625 -2.96875 L 19.796875 -2.609375 L 19.328125 -2.109375 L 18.375 -1.359375 L 16.171875 -0.25 L 13.84375 0.3125 Z M 10.75 0.3125 "/></g></g></g><g fill="#5271ff" fill-opacity="1"><g transform="translate(365.410387, 93.773766)"><g><path d="M 12.421875 0.40625 L 10.5625 0.3125 L 7.9375 -0.46875 L 7.34375 -0.71875 L 5.234375 -1.828125 L 4.828125 -2.296875 L 3.96875 -3.125 L 2.515625 -5.109375 L 2.203125 -5.671875 L 2.015625 -6.328125 L 1.546875 -7.375 L 1.203125 -9.328125 L 1.328125 -12.921875 L 1.578125 -14.25 L 2.171875 -15.953125 L 2.453125 -16.484375 L 3.5 -18.03125 L 4.34375 -18.96875 L 5.328125 -19.640625 L 5.765625 -20.015625 L 7.34375 -21 L 8.515625 -21.3125 L 9.078125 -21.5625 L 9.703125 -21.75 L 10.3125 -21.875 L 12.484375 -22 L 13.9375 -21.96875 L 18 -20.703125 L 19.578125 -19.703125 L 20.921875 -18.5 L 21.3125 -17.9375 L 21.6875 -17.5625 L 22.09375 -17.046875 L 22.3125 -16.484375 L 22.859375 -15.46875 L 23.015625 -14.75 L 23.265625 -14.09375 L 23.515625 -12.953125 L 23.671875 -10.8125 L 23.515625 -8.640625 L 23.390625 -7.96875 L 23.203125 -7.46875 L 23.109375 -6.84375 L 22.890625 -6.265625 L 21.6875 -4.125 L 21.28125 -3.5625 L 19.125 -1.484375 L 16.359375 -0.25 L 15.1875 0.125 Z M 11.5625 -5.046875 L 13.359375 -5.109375 L 13.9375 -5.265625 L 14.5 -5.328125 L 15 -5.609375 L 15.546875 -5.859375 L 16.515625 -6.59375 L 16.890625 -7.15625 L 17.171875 -7.625 L 17.5 -8.09375 L 17.78125 -9.359375 L 17.96875 -10.90625 L 17.84375 -12.234375 L 17.625 -12.796875 L 17.4375 -13.421875 L 17.203125 -13.96875 L 16.484375 -15.03125 L 15.515625 -15.734375 L 13.875 -16.453125 L 12.390625 -16.546875 L 10.96875 -16.421875 L 10.3125 -16.265625 L 9.765625 -15.984375 L 8.859375 -15.375 L 8.390625 -14.96875 L 8 -14.46875 L 7.71875 -13.9375 L 7.34375 -13.515625 L 7.15625 -12.953125 L 6.9375 -11.8125 L 6.90625 -10.875 L 7.0625 -9.328125 L 7.65625 -7.59375 L 8.0625 -7.15625 L 8.359375 -6.71875 L 9.328125 -5.890625 L 10.375 -5.328125 L 10.9375 -5.265625 Z M 11.5625 -5.046875 "/></g></g></g></svg>