<svg xmlns="http://www.w3.org/2000/svg" xmlns:xlink="http://www.w3.org/1999/xlink" width="678" zoomAndPan="magnify" viewBox="0 0 508.5 182.249993" height="243" preserveAspectRatio="xMidYMid meet" version="1.0"><defs><g/><clipPath id="4fe54fd385"><path d="M 195 68 L 234.925781 68 L 234.925781 74 L 195 74 Z M 195 68 " clip-rule="nonzero"/></clipPath><clipPath id="04d59728a4"><path d="M 35.003906 25.027344 L 193 25.027344 L 193 156.441406 L 35.003906 156.441406 Z M 35.003906 25.027344 " clip-rule="nonzero"/></clipPath></defs><path fill="#5271ff" d="M 184.988281 91.402344 C 184.988281 89.957031 186.15625 88.789062 187.601562 88.789062 L 215.417969 88.789062 C 216.863281 88.789062 218.035156 89.957031 218.035156 91.402344 C 218.035156 92.847656 216.863281 94.015625 215.417969 94.015625 L 187.601562 94.015625 C 186.15625 94.015625 184.988281 92.847656 184.988281 91.402344 " fill-opacity="1" fill-rule="nonzero"/><path fill="#5271ff" d="M 187.601562 47.398438 L 215.417969 47.398438 C 216.863281 47.398438 218.035156 48.570312 218.035156 50.015625 C 218.035156 51.457031 216.863281 52.628906 215.417969 52.628906 L 187.601562 52.628906 C 186.15625 52.628906 184.988281 51.457031 184.988281 50.015625 C 184.988281 48.570312 186.15625 47.398438 187.601562 47.398438 " fill-opacity="1" fill-rule="nonzero"/><g clip-path="url(#4fe54fd385)"><path fill="#5271ff" d="M 232.566406 73.324219 L 198.128906 73.324219 C 196.683594 73.324219 195.515625 72.152344 195.515625 70.707031 C 195.515625 69.265625 196.683594 68.09375 198.128906 68.09375 L 232.566406 68.09375 C 234.011719 68.09375 235.179688 69.265625 235.179688 70.707031 C 235.179688 72.152344 234.011719 73.324219 232.566406 73.324219 " fill-opacity="1" fill-rule="nonzero"/></g><path fill="#5271ff" d="M 64.011719 132.527344 C 66.953125 132.527344 69.339844 134.910156 69.339844 137.855469 C 69.339844 140.796875 66.953125 143.183594 64.011719 143.183594 C 61.066406 143.183594 58.679688 140.796875 58.679688 137.855469 C 58.679688 134.910156 61.066406 132.527344 64.011719 132.527344 " fill-opacity="1" fill-rule="nonzero"/><path fill="#5271ff" d="M 163.492188 132.527344 C 166.433594 132.527344 168.820312 134.910156 168.820312 137.855469 C 168.820312 140.796875 166.433594 143.183594 163.492188 143.183594 C 160.546875 143.183594 158.160156 140.796875 158.160156 137.855469 C 158.160156 134.910156 160.546875 132.527344 163.492188 132.527344 " fill-opacity="1" fill-rule="nonzero"/><path fill="#5271ff" d="M 53.074219 101.363281 L 82.660156 101.363281 L 82.660156 71.777344 L 72.429688 71.777344 L 53.074219 91.132812 Z M 87.890625 66.546875 L 87.890625 106.59375 L 47.84375 106.59375 L 47.84375 88.96875 L 70.265625 66.546875 L 87.890625 66.546875 " fill-opacity="1" fill-rule="nonzero"/><g clip-path="url(#04d59728a4)"><path fill="#5271ff" d="M 39.976562 132.710938 C 39.976562 134.066406 41.082031 135.167969 42.433594 135.167969 L 45.625 135.167969 C 46.933594 126.183594 54.664062 119.25 64.011719 119.25 C 73.351562 119.25 81.085938 126.183594 82.394531 135.167969 L 145.105469 135.167969 C 146.414062 126.183594 154.148438 119.25 163.492188 119.25 C 172.832031 119.25 180.5625 126.179688 181.875 135.164062 C 184.992188 135.136719 187.523438 132.59375 187.523438 129.46875 L 187.523438 115.527344 L 95.855469 115.527344 L 95.855469 58.679688 L 76.230469 58.679688 C 70.195312 58.679688 64.519531 61.03125 60.25 65.300781 L 46.59375 78.953125 C 42.328125 83.21875 39.976562 88.894531 39.976562 94.933594 Z M 64.011719 151.226562 C 71.382812 151.226562 77.382812 145.230469 77.382812 137.855469 C 77.382812 130.480469 71.382812 124.480469 64.011719 124.480469 C 56.632812 124.480469 50.636719 130.480469 50.636719 137.855469 C 50.636719 145.230469 56.632812 151.226562 64.011719 151.226562 Z M 163.492188 151.226562 C 170.867188 151.226562 176.863281 145.230469 176.863281 137.855469 C 176.863281 130.480469 170.867188 124.480469 163.492188 124.480469 C 156.117188 124.480469 150.117188 130.480469 150.117188 137.855469 C 150.117188 145.230469 156.117188 151.226562 163.492188 151.226562 Z M 56.554688 61.601562 C 61.808594 56.34375 68.796875 53.453125 76.230469 53.453125 L 95.855469 53.453125 L 95.855469 33.296875 C 95.855469 28.738281 99.566406 25.027344 104.128906 25.027344 L 184.484375 25.027344 C 189.042969 25.027344 192.753906 28.738281 192.753906 33.296875 L 192.753906 40.601562 C 192.753906 42.046875 191.582031 43.214844 190.136719 43.214844 C 188.691406 43.214844 187.523438 42.046875 187.523438 40.601562 L 187.523438 33.296875 C 187.523438 31.621094 186.160156 30.257812 184.484375 30.257812 L 104.128906 30.257812 C 102.453125 30.257812 101.085938 31.621094 101.085938 33.296875 L 101.085938 110.296875 L 187.523438 110.296875 L 187.523438 102.089844 C 187.523438 100.644531 188.691406 99.472656 190.136719 99.472656 C 191.582031 99.472656 192.753906 100.644531 192.753906 102.089844 L 192.753906 129.46875 C 192.753906 135.472656 187.886719 140.351562 181.898438 140.390625 C 180.65625 149.449219 172.886719 156.457031 163.492188 156.457031 C 154.097656 156.457031 146.328125 149.453125 145.082031 140.398438 L 82.417969 140.398438 C 81.171875 149.453125 73.402344 156.457031 64.011719 156.457031 C 54.613281 156.457031 46.847656 149.453125 45.601562 140.398438 L 42.433594 140.398438 C 38.195312 140.398438 34.75 136.949219 34.75 132.710938 L 34.75 94.933594 C 34.75 87.5 37.644531 80.511719 42.898438 75.253906 L 56.554688 61.601562 " fill-opacity="1" fill-rule="nonzero"/></g><g fill="#5271ff" fill-opacity="1"><g transform="translate(226.997847, 90.427956)"><g><path d="M 16.046875 -28.84375 C 17.648438 -28.84375 19.128906 -28.648438 20.484375 -28.265625 C 21.847656 -27.878906 23.234375 -27.269531 24.640625 -26.4375 L 25.625 -27.25 C 26.3125 -27.800781 26.875 -28.175781 27.3125 -28.375 C 27.757812 -28.570312 28.269531 -28.671875 28.84375 -28.671875 C 29.53125 -28.671875 30.070312 -28.519531 30.46875 -28.21875 C 30.875 -27.914062 31.078125 -27.476562 31.078125 -26.90625 C 31.078125 -26.675781 31.035156 -26.4375 30.953125 -26.1875 L 29.140625 -20.265625 C 28.941406 -19.578125 28.691406 -19.085938 28.390625 -18.796875 C 28.085938 -18.515625 27.640625 -18.375 27.046875 -18.375 C 26.410156 -18.375 25.859375 -18.566406 25.390625 -18.953125 C 24.921875 -19.335938 24.179688 -20.128906 23.171875 -21.328125 C 22.171875 -22.472656 21.265625 -23.28125 20.453125 -23.75 C 19.640625 -24.226562 18.800781 -24.46875 17.9375 -24.46875 C 17.3125 -24.46875 16.78125 -24.257812 16.34375 -23.84375 C 15.914062 -23.425781 15.703125 -22.914062 15.703125 -22.3125 C 15.703125 -21.632812 16.046875 -21 16.734375 -20.40625 C 17.421875 -19.820312 18.492188 -19.085938 19.953125 -18.203125 C 21.441406 -17.316406 22.671875 -16.515625 23.640625 -15.796875 C 24.617188 -15.078125 25.453125 -14.1875 26.140625 -13.125 C 26.828125 -12.070312 27.171875 -10.859375 27.171875 -9.484375 C 27.171875 -8.597656 27.023438 -7.710938 26.734375 -6.828125 C 26.046875 -4.535156 24.710938 -2.796875 22.734375 -1.609375 C 20.765625 -0.421875 18.46875 0.171875 15.84375 0.171875 C 13.863281 0.171875 12.203125 -0.0546875 10.859375 -0.515625 C 9.515625 -0.972656 8.140625 -1.742188 6.734375 -2.828125 L 5.1875 -1.546875 C 4.476562 -0.941406 3.894531 -0.53125 3.4375 -0.3125 C 2.976562 -0.101562 2.460938 0 1.890625 0 C 1.234375 0 0.710938 -0.15625 0.328125 -0.46875 C -0.0546875 -0.78125 -0.25 -1.210938 -0.25 -1.765625 C -0.25 -2.046875 -0.191406 -2.34375 -0.078125 -2.65625 L 2.015625 -9.0625 C 2.242188 -9.800781 2.554688 -10.328125 2.953125 -10.640625 C 3.359375 -10.953125 3.875 -11.109375 4.5 -11.109375 C 5.164062 -11.109375 5.757812 -10.878906 6.28125 -10.421875 C 6.8125 -9.972656 7.507812 -9.144531 8.375 -7.9375 C 9.289062 -6.625 10.140625 -5.707031 10.921875 -5.1875 C 11.710938 -4.675781 12.648438 -4.421875 13.734375 -4.421875 C 14.503906 -4.421875 15.097656 -4.539062 15.515625 -4.78125 C 15.929688 -5.03125 16.222656 -5.425781 16.390625 -5.96875 C 16.453125 -6.113281 16.484375 -6.328125 16.484375 -6.609375 C 16.484375 -7.296875 16.148438 -7.925781 15.484375 -8.5 C 14.828125 -9.070312 13.816406 -9.757812 12.453125 -10.5625 C 10.992188 -11.445312 9.804688 -12.238281 8.890625 -12.9375 C 7.972656 -13.644531 7.175781 -14.523438 6.5 -15.578125 C 5.832031 -16.640625 5.5 -17.882812 5.5 -19.3125 C 5.5 -20.3125 5.65625 -21.300781 5.96875 -22.28125 C 6.570312 -24.25 7.800781 -25.832031 9.65625 -27.03125 C 11.519531 -28.238281 13.648438 -28.84375 16.046875 -28.84375 Z M 16.046875 -28.84375 "/></g></g></g><g fill="#5271ff" fill-opacity="1"><g transform="translate(256.564801, 90.427956)"><g><path d="M 19.0625 -28.578125 C 19.65625 -28.578125 20.117188 -28.484375 20.453125 -28.296875 C 20.785156 -28.117188 20.953125 -27.859375 20.953125 -27.515625 C 20.953125 -27.367188 20.90625 -27.179688 20.8125 -26.953125 C 20.726562 -26.753906 20.609375 -26.578125 20.453125 -26.421875 C 20.296875 -26.265625 20.148438 -26.148438 20.015625 -26.078125 C 19.890625 -26.003906 19.800781 -25.9375 19.75 -25.875 C 19.289062 -25.625 18.914062 -25.335938 18.625 -25.015625 C 18.34375 -24.703125 18.097656 -24.21875 17.890625 -23.5625 L 12.703125 -5.0625 C 12.585938 -4.6875 12.53125 -4.328125 12.53125 -3.984375 C 12.53125 -3.648438 12.578125 -3.367188 12.671875 -3.140625 C 12.773438 -2.910156 12.929688 -2.664062 13.140625 -2.40625 C 13.390625 -2.03125 13.515625 -1.726562 13.515625 -1.5 C 13.515625 -1.445312 13.488281 -1.304688 13.4375 -1.078125 C 13.320312 -0.671875 13.0625 -0.390625 12.65625 -0.234375 C 12.257812 -0.078125 11.660156 0 10.859375 0 L 0.765625 0 C 0.171875 0 -0.285156 -0.0976562 -0.609375 -0.296875 C -0.941406 -0.492188 -1.109375 -0.765625 -1.109375 -1.109375 C -1.109375 -1.285156 -1.066406 -1.472656 -0.984375 -1.671875 C -0.867188 -1.984375 -0.679688 -2.222656 -0.421875 -2.390625 C -0.171875 -2.566406 -0.015625 -2.671875 0.046875 -2.703125 C 0.503906 -2.992188 0.875 -3.285156 1.15625 -3.578125 C 1.445312 -3.878906 1.691406 -4.375 1.890625 -5.0625 L 7.125 -23.5625 C 7.238281 -23.9375 7.296875 -24.296875 7.296875 -24.640625 C 7.296875 -24.953125 7.242188 -25.210938 7.140625 -25.421875 C 7.046875 -25.640625 6.910156 -25.894531 6.734375 -26.1875 C 6.484375 -26.550781 6.359375 -26.847656 6.359375 -27.078125 C 6.359375 -27.171875 6.382812 -27.332031 6.4375 -27.5625 C 6.550781 -27.925781 6.800781 -28.1875 7.1875 -28.34375 C 7.570312 -28.5 8.164062 -28.578125 8.96875 -28.578125 Z M 19.0625 -28.578125 "/></g></g></g><g fill="#5271ff" fill-opacity="1"><g transform="translate(273.901596, 90.427956)"><g><path d="M 16.046875 -28.84375 C 17.648438 -28.84375 19.128906 -28.648438 20.484375 -28.265625 C 21.847656 -27.878906 23.234375 -27.269531 24.640625 -26.4375 L 25.625 -27.25 C 26.3125 -27.800781 26.875 -28.175781 27.3125 -28.375 C 27.757812 -28.570312 28.269531 -28.671875 28.84375 -28.671875 C 29.53125 -28.671875 30.070312 -28.519531 30.46875 -28.21875 C 30.875 -27.914062 31.078125 -27.476562 31.078125 -26.90625 C 31.078125 -26.675781 31.035156 -26.4375 30.953125 -26.1875 L 29.140625 -20.265625 C 28.941406 -19.578125 28.691406 -19.085938 28.390625 -18.796875 C 28.085938 -18.515625 27.640625 -18.375 27.046875 -18.375 C 26.410156 -18.375 25.859375 -18.566406 25.390625 -18.953125 C 24.921875 -19.335938 24.179688 -20.128906 23.171875 -21.328125 C 22.171875 -22.472656 21.265625 -23.28125 20.453125 -23.75 C 19.640625 -24.226562 18.800781 -24.46875 17.9375 -24.46875 C 17.3125 -24.46875 16.78125 -24.257812 16.34375 -23.84375 C 15.914062 -23.425781 15.703125 -22.914062 15.703125 -22.3125 C 15.703125 -21.632812 16.046875 -21 16.734375 -20.40625 C 17.421875 -19.820312 18.492188 -19.085938 19.953125 -18.203125 C 21.441406 -17.316406 22.671875 -16.515625 23.640625 -15.796875 C 24.617188 -15.078125 25.453125 -14.1875 26.140625 -13.125 C 26.828125 -12.070312 27.171875 -10.859375 27.171875 -9.484375 C 27.171875 -8.597656 27.023438 -7.710938 26.734375 -6.828125 C 26.046875 -4.535156 24.710938 -2.796875 22.734375 -1.609375 C 20.765625 -0.421875 18.46875 0.171875 15.84375 0.171875 C 13.863281 0.171875 12.203125 -0.0546875 10.859375 -0.515625 C 9.515625 -0.972656 8.140625 -1.742188 6.734375 -2.828125 L 5.1875 -1.546875 C 4.476562 -0.941406 3.894531 -0.53125 3.4375 -0.3125 C 2.976562 -0.101562 2.460938 0 1.890625 0 C 1.234375 0 0.710938 -0.15625 0.328125 -0.46875 C -0.0546875 -0.78125 -0.25 -1.210938 -0.25 -1.765625 C -0.25 -2.046875 -0.191406 -2.34375 -0.078125 -2.65625 L 2.015625 -9.0625 C 2.242188 -9.800781 2.554688 -10.328125 2.953125 -10.640625 C 3.359375 -10.953125 3.875 -11.109375 4.5 -11.109375 C 5.164062 -11.109375 5.757812 -10.878906 6.28125 -10.421875 C 6.8125 -9.972656 7.507812 -9.144531 8.375 -7.9375 C 9.289062 -6.625 10.140625 -5.707031 10.921875 -5.1875 C 11.710938 -4.675781 12.648438 -4.421875 13.734375 -4.421875 C 14.503906 -4.421875 15.097656 -4.539062 15.515625 -4.78125 C 15.929688 -5.03125 16.222656 -5.425781 16.390625 -5.96875 C 16.453125 -6.113281 16.484375 -6.328125 16.484375 -6.609375 C 16.484375 -7.296875 16.148438 -7.925781 15.484375 -8.5 C 14.828125 -9.070312 13.816406 -9.757812 12.453125 -10.5625 C 10.992188 -11.445312 9.804688 -12.238281 8.890625 -12.9375 C 7.972656 -13.644531 7.175781 -14.523438 6.5 -15.578125 C 5.832031 -16.640625 5.5 -17.882812 5.5 -19.3125 C 5.5 -20.3125 5.65625 -21.300781 5.96875 -22.28125 C 6.570312 -24.25 7.800781 -25.832031 9.65625 -27.03125 C 11.519531 -28.238281 13.648438 -28.84375 16.046875 -28.84375 Z M 16.046875 -28.84375 "/></g></g></g><g fill="#5271ff" fill-opacity="1"><g transform="translate(303.468551, 90.427956)"><g><path d="M 26.21875 -5.0625 C 26.101562 -4.6875 26.046875 -4.316406 26.046875 -3.953125 C 26.046875 -3.640625 26.085938 -3.375 26.171875 -3.15625 C 26.265625 -2.9375 26.359375 -2.765625 26.453125 -2.640625 C 26.554688 -2.515625 26.625 -2.421875 26.65625 -2.359375 C 26.9375 -2.078125 27.078125 -1.789062 27.078125 -1.5 C 27.078125 -1.445312 27.050781 -1.304688 27 -1.078125 C 26.882812 -0.671875 26.632812 -0.390625 26.25 -0.234375 C 25.863281 -0.078125 25.269531 0 24.46875 0 L 14.296875 0 C 13.691406 0 13.222656 -0.0976562 12.890625 -0.296875 C 12.566406 -0.492188 12.40625 -0.765625 12.40625 -1.109375 C 12.40625 -1.285156 12.445312 -1.472656 12.53125 -1.671875 C 12.613281 -1.898438 12.734375 -2.078125 12.890625 -2.203125 C 13.054688 -2.335938 13.28125 -2.488281 13.5625 -2.65625 C 14.019531 -2.914062 14.390625 -3.203125 14.671875 -3.515625 C 14.960938 -3.828125 15.207031 -4.34375 15.40625 -5.0625 L 16.53125 -8.75 L 9.828125 -8.75 L 8.671875 -6.3125 C 8.179688 -5.25 7.9375 -4.414062 7.9375 -3.8125 C 7.9375 -3.476562 7.992188 -3.203125 8.109375 -2.984375 C 8.222656 -2.765625 8.394531 -2.539062 8.625 -2.3125 C 8.820312 -2.082031 8.957031 -1.890625 9.03125 -1.734375 C 9.101562 -1.578125 9.113281 -1.367188 9.0625 -1.109375 C 8.945312 -0.679688 8.707031 -0.390625 8.34375 -0.234375 C 7.988281 -0.078125 7.425781 0 6.65625 0 L 0.25 0 C -0.40625 0 -0.90625 -0.117188 -1.25 -0.359375 C -1.59375 -0.609375 -1.765625 -0.929688 -1.765625 -1.328125 C -1.765625 -1.785156 -1.597656 -2.148438 -1.265625 -2.421875 C -0.929688 -2.691406 -0.4375 -2.988281 0.21875 -3.3125 C 1.070312 -3.738281 1.753906 -4.15625 2.265625 -4.5625 C 2.785156 -4.976562 3.234375 -5.5625 3.609375 -6.3125 L 11.25 -22.140625 C 12.414062 -24.609375 13.789062 -26.390625 15.375 -27.484375 C 16.96875 -28.585938 19.066406 -29.140625 21.671875 -29.140625 C 24.585938 -29.140625 26.847656 -28.546875 28.453125 -27.359375 C 30.054688 -26.171875 30.859375 -24.519531 30.859375 -22.40625 C 30.859375 -21.519531 30.71875 -20.601562 30.4375 -19.65625 Z M 17.8125 -13.046875 L 20.09375 -20.609375 C 20.207031 -20.953125 20.265625 -21.304688 20.265625 -21.671875 C 20.265625 -22.210938 20.113281 -22.617188 19.8125 -22.890625 C 19.507812 -23.171875 19.085938 -23.3125 18.546875 -23.3125 C 17.859375 -23.3125 17.269531 -23.109375 16.78125 -22.703125 C 16.289062 -22.304688 15.804688 -21.59375 15.328125 -20.5625 L 11.796875 -13.046875 Z M 17.8125 -13.046875 "/></g></g></g><g fill="#5271ff" fill-opacity="1"><g transform="translate(333.421726, 90.427956)"><g><path d="M 37.515625 -28.578125 C 38.117188 -28.578125 38.582031 -28.476562 38.90625 -28.28125 C 39.238281 -28.082031 39.40625 -27.828125 39.40625 -27.515625 C 39.40625 -27.367188 39.359375 -27.179688 39.265625 -26.953125 C 39.179688 -26.753906 39.0625 -26.578125 38.90625 -26.421875 C 38.75 -26.265625 38.601562 -26.148438 38.46875 -26.078125 C 38.34375 -26.003906 38.253906 -25.9375 38.203125 -25.875 C 37.742188 -25.625 37.367188 -25.335938 37.078125 -25.015625 C 36.796875 -24.703125 36.554688 -24.21875 36.359375 -23.5625 L 31.078125 -5.0625 C 30.960938 -4.6875 30.90625 -4.328125 30.90625 -3.984375 C 30.90625 -3.648438 30.953125 -3.378906 31.046875 -3.171875 C 31.148438 -2.972656 31.300781 -2.71875 31.5 -2.40625 C 31.53125 -2.375 31.609375 -2.265625 31.734375 -2.078125 C 31.867188 -1.890625 31.9375 -1.695312 31.9375 -1.5 C 31.9375 -1.445312 31.90625 -1.304688 31.84375 -1.078125 C 31.707031 -0.671875 31.4375 -0.390625 31.03125 -0.234375 C 30.632812 -0.078125 30.035156 0 29.234375 0 L 19.140625 0 C 18.535156 0 18.066406 -0.0976562 17.734375 -0.296875 C 17.410156 -0.492188 17.25 -0.765625 17.25 -1.109375 C 17.25 -1.285156 17.296875 -1.472656 17.390625 -1.671875 C 17.503906 -1.898438 17.660156 -2.09375 17.859375 -2.25 C 18.054688 -2.40625 18.253906 -2.539062 18.453125 -2.65625 C 18.910156 -2.914062 19.28125 -3.207031 19.5625 -3.53125 C 19.851562 -3.863281 20.097656 -4.375 20.296875 -5.0625 L 22.359375 -12.234375 L 14.765625 -12.234375 L 12.703125 -5.0625 C 12.585938 -4.6875 12.53125 -4.328125 12.53125 -3.984375 C 12.53125 -3.648438 12.578125 -3.378906 12.671875 -3.171875 C 12.773438 -2.972656 12.929688 -2.71875 13.140625 -2.40625 C 13.160156 -2.375 13.234375 -2.265625 13.359375 -2.078125 C 13.492188 -1.890625 13.5625 -1.695312 13.5625 -1.5 C 13.5625 -1.445312 13.535156 -1.304688 13.484375 -1.078125 C 13.335938 -0.671875 13.0625 -0.390625 12.65625 -0.234375 C 12.257812 -0.078125 11.660156 0 10.859375 0 L 0.765625 0 C 0.171875 0 -0.285156 -0.0976562 -0.609375 -0.296875 C -0.941406 -0.492188 -1.109375 -0.765625 -1.109375 -1.109375 C -1.109375 -1.285156 -1.066406 -1.472656 -0.984375 -1.671875 C -0.867188 -1.898438 -0.710938 -2.09375 -0.515625 -2.25 C -0.316406 -2.40625 -0.117188 -2.539062 0.078125 -2.65625 C 0.535156 -2.914062 0.90625 -3.207031 1.1875 -3.53125 C 1.476562 -3.863281 1.726562 -4.375 1.9375 -5.0625 L 7.203125 -23.5625 C 7.316406 -23.9375 7.375 -24.296875 7.375 -24.640625 C 7.375 -24.953125 7.320312 -25.210938 7.21875 -25.421875 C 7.125 -25.640625 6.992188 -25.894531 6.828125 -26.1875 C 6.710938 -26.320312 6.609375 -26.46875 6.515625 -26.625 C 6.429688 -26.789062 6.390625 -26.957031 6.390625 -27.125 C 6.390625 -27.1875 6.421875 -27.332031 6.484375 -27.5625 C 6.597656 -27.925781 6.851562 -28.1875 7.25 -28.34375 C 7.65625 -28.5 8.257812 -28.578125 9.0625 -28.578125 L 19.140625 -28.578125 C 19.742188 -28.578125 20.207031 -28.476562 20.53125 -28.28125 C 20.863281 -28.082031 21.03125 -27.828125 21.03125 -27.515625 C 21.03125 -27.367188 20.988281 -27.179688 20.90625 -26.953125 C 20.820312 -26.753906 20.695312 -26.578125 20.53125 -26.421875 C 20.375 -26.265625 20.234375 -26.148438 20.109375 -26.078125 C 19.984375 -26.003906 19.890625 -25.9375 19.828125 -25.875 C 19.367188 -25.625 18.992188 -25.335938 18.703125 -25.015625 C 18.421875 -24.703125 18.179688 -24.21875 17.984375 -23.5625 L 15.96875 -16.53125 L 23.5625 -16.53125 L 25.578125 -23.5625 C 25.691406 -23.9375 25.75 -24.296875 25.75 -24.640625 C 25.75 -24.953125 25.695312 -25.210938 25.59375 -25.421875 C 25.5 -25.640625 25.363281 -25.894531 25.1875 -26.1875 C 25.070312 -26.320312 24.972656 -26.46875 24.890625 -26.625 C 24.804688 -26.789062 24.765625 -26.957031 24.765625 -27.125 C 24.765625 -27.1875 24.796875 -27.332031 24.859375 -27.5625 C 24.960938 -27.925781 25.210938 -28.1875 25.609375 -28.34375 C 26.015625 -28.5 26.617188 -28.578125 27.421875 -28.578125 Z M 37.515625 -28.578125 "/></g></g></g><g fill="#5271ff" fill-opacity="1"><g transform="translate(369.211049, 90.427956)"><g><path d="M 34.25 -28.75 C 35.507812 -28.75 36.539062 -28.34375 37.34375 -27.53125 C 38.144531 -26.71875 38.546875 -25.679688 38.546875 -24.421875 C 38.546875 -24.253906 38.515625 -23.941406 38.453125 -23.484375 C 38.222656 -22.109375 37.6875 -21.085938 36.84375 -20.421875 C 36 -19.765625 35.019531 -19.4375 33.90625 -19.4375 C 33.164062 -19.4375 32.535156 -19.550781 32.015625 -19.78125 C 31.503906 -20.007812 31.019531 -20.398438 30.5625 -20.953125 L 23.484375 -11.71875 L 21.5 -5.0625 C 21.445312 -4.894531 21.421875 -4.664062 21.421875 -4.375 C 21.421875 -3.976562 21.519531 -3.644531 21.71875 -3.375 C 21.914062 -3.101562 22.203125 -2.804688 22.578125 -2.484375 C 22.890625 -2.203125 23.117188 -1.957031 23.265625 -1.75 C 23.410156 -1.550781 23.4375 -1.328125 23.34375 -1.078125 C 23.226562 -0.671875 22.945312 -0.390625 22.5 -0.234375 C 22.0625 -0.078125 21.457031 0 20.6875 0 L 9.875 0 C 9.125 0 8.570312 -0.132812 8.21875 -0.40625 C 7.863281 -0.675781 7.742188 -1.054688 7.859375 -1.546875 C 7.910156 -1.804688 8.015625 -2.015625 8.171875 -2.171875 C 8.328125 -2.328125 8.578125 -2.519531 8.921875 -2.75 C 9.359375 -3.007812 9.71875 -3.300781 10 -3.625 C 10.289062 -3.957031 10.535156 -4.4375 10.734375 -5.0625 L 12.703125 -11.765625 L 8.75 -23 C 8.46875 -23.832031 8.132812 -24.46875 7.75 -24.90625 C 7.363281 -25.351562 6.910156 -25.789062 6.390625 -26.21875 C 6.078125 -26.445312 5.847656 -26.644531 5.703125 -26.8125 C 5.566406 -26.988281 5.5 -27.191406 5.5 -27.421875 C 5.5 -27.765625 5.644531 -28.039062 5.9375 -28.25 C 6.238281 -28.46875 6.675781 -28.578125 7.25 -28.578125 L 18.71875 -28.578125 C 19.71875 -28.578125 20.398438 -28.492188 20.765625 -28.328125 C 21.140625 -28.160156 21.34375 -27.859375 21.375 -27.421875 C 21.375 -27.171875 21.316406 -26.953125 21.203125 -26.765625 C 21.085938 -26.578125 20.914062 -26.351562 20.6875 -26.09375 C 20.425781 -25.75 20.234375 -25.46875 20.109375 -25.25 C 19.984375 -25.039062 19.921875 -24.78125 19.921875 -24.46875 C 19.921875 -24.382812 19.945312 -24.195312 20 -23.90625 L 21.96875 -16.359375 L 27.421875 -24.125 C 28.597656 -25.78125 29.707031 -26.960938 30.75 -27.671875 C 31.789062 -28.390625 32.957031 -28.75 34.25 -28.75 Z M 34.25 -28.75 "/></g></g></g><g fill="#5271ff" fill-opacity="1"><g transform="translate(403.069288, 90.427956)"><g><path d="M 12.703125 0.25 C 10.785156 0.25 9.046875 -0.171875 7.484375 -1.015625 C 5.929688 -1.859375 4.695312 -3.097656 3.78125 -4.734375 C 2.863281 -6.378906 2.40625 -8.347656 2.40625 -10.640625 C 2.40625 -12.390625 2.707031 -14.335938 3.3125 -16.484375 C 4.625 -21.054688 6.6875 -24.285156 9.5 -26.171875 C 12.320312 -28.066406 15.335938 -29.015625 18.546875 -29.015625 C 21.460938 -29.015625 24.09375 -27.957031 26.4375 -25.84375 L 27.734375 -27.078125 C 28.441406 -27.679688 29.050781 -28.097656 29.5625 -28.328125 C 30.082031 -28.554688 30.6875 -28.671875 31.375 -28.671875 C 32.113281 -28.671875 32.710938 -28.488281 33.171875 -28.125 C 33.628906 -27.769531 33.859375 -27.296875 33.859375 -26.703125 C 33.859375 -26.472656 33.816406 -26.195312 33.734375 -25.875 L 32.1875 -20.46875 C 31.90625 -19.550781 31.570312 -18.90625 31.1875 -18.53125 C 30.800781 -18.164062 30.273438 -17.984375 29.609375 -17.984375 C 28.921875 -17.984375 28.3125 -18.15625 27.78125 -18.5 C 27.257812 -18.84375 26.65625 -19.457031 25.96875 -20.34375 C 25.050781 -21.539062 24.238281 -22.390625 23.53125 -22.890625 C 22.832031 -23.398438 22.070312 -23.65625 21.25 -23.65625 C 19.957031 -23.65625 18.734375 -23.003906 17.578125 -21.703125 C 16.421875 -20.398438 15.410156 -18.226562 14.546875 -15.1875 C 14.003906 -13.21875 13.734375 -11.519531 13.734375 -10.09375 C 13.734375 -8.570312 14.023438 -7.414062 14.609375 -6.625 C 15.203125 -5.84375 16.023438 -5.453125 17.078125 -5.453125 C 17.992188 -5.453125 18.703125 -5.664062 19.203125 -6.09375 C 19.703125 -6.519531 20.097656 -7.265625 20.390625 -8.328125 L 20.6875 -9.40625 C 20.832031 -9.976562 20.90625 -10.363281 20.90625 -10.5625 C 20.90625 -10.90625 20.828125 -11.144531 20.671875 -11.28125 C 20.515625 -11.425781 20.25 -11.585938 19.875 -11.765625 L 18.375 -12.3125 C 17.71875 -12.570312 17.390625 -13.046875 17.390625 -13.734375 C 17.390625 -13.929688 17.398438 -14.085938 17.421875 -14.203125 C 17.535156 -14.578125 17.742188 -14.847656 18.046875 -15.015625 C 18.347656 -15.191406 18.8125 -15.28125 19.4375 -15.28125 L 32.40625 -15.234375 C 33.351562 -15.234375 33.828125 -14.929688 33.828125 -14.328125 C 33.828125 -14.222656 33.796875 -14.054688 33.734375 -13.828125 C 33.617188 -13.390625 33.429688 -13.039062 33.171875 -12.78125 C 32.921875 -12.53125 32.550781 -12.273438 32.0625 -12.015625 L 30.953125 -11.375 C 30.660156 -11.195312 30.441406 -11.03125 30.296875 -10.875 C 30.160156 -10.71875 30.0625 -10.523438 30 -10.296875 L 27.734375 -2.359375 C 27.441406 -1.410156 27.113281 -0.78125 26.75 -0.46875 C 26.394531 -0.15625 25.960938 0 25.453125 0 L 23.65625 0 C 22.96875 0 22.398438 -0.140625 21.953125 -0.421875 C 21.515625 -0.710938 21.148438 -1.273438 20.859375 -2.109375 L 20.4375 -3.34375 C 18.375 -0.945312 15.796875 0.25 12.703125 0.25 Z M 12.703125 0.25 "/></g></g></g><g fill="#5271ff" fill-opacity="1"><g transform="translate(435.554333, 90.427956)"><g><path d="M 20.90625 -29.234375 C 24.507812 -29.234375 27.328125 -28.378906 29.359375 -26.671875 C 31.390625 -24.972656 32.40625 -22.519531 32.40625 -19.3125 C 32.40625 -17.800781 32.175781 -16.171875 31.71875 -14.421875 C 30.863281 -11.210938 29.53125 -8.492188 27.71875 -6.265625 C 25.914062 -4.035156 23.769531 -2.347656 21.28125 -1.203125 C 18.800781 -0.0546875 16.097656 0.515625 13.171875 0.515625 C 9.597656 0.515625 6.796875 -0.332031 4.765625 -2.03125 C 2.734375 -3.738281 1.71875 -6.195312 1.71875 -9.40625 C 1.71875 -10.863281 1.960938 -12.535156 2.453125 -14.421875 C 3.273438 -17.597656 4.582031 -20.296875 6.375 -22.515625 C 8.164062 -24.734375 10.296875 -26.40625 12.765625 -27.53125 C 15.242188 -28.664062 17.957031 -29.234375 20.90625 -29.234375 Z M 20.125 -25.015625 C 19.269531 -25.015625 18.5 -24.671875 17.8125 -23.984375 C 17.125 -23.304688 16.441406 -22.1875 15.765625 -20.625 C 15.097656 -19.0625 14.378906 -16.894531 13.609375 -14.125 C 12.460938 -10.113281 11.890625 -7.351562 11.890625 -5.84375 C 11.890625 -4.945312 12.046875 -4.300781 12.359375 -3.90625 C 12.671875 -3.507812 13.171875 -3.3125 13.859375 -3.3125 C 14.722656 -3.3125 15.5 -3.660156 16.1875 -4.359375 C 16.875 -5.054688 17.546875 -6.175781 18.203125 -7.71875 C 18.859375 -9.269531 19.585938 -11.40625 20.390625 -14.125 C 21.503906 -18.070312 22.0625 -20.847656 22.0625 -22.453125 C 22.0625 -23.367188 21.90625 -24.023438 21.59375 -24.421875 C 21.28125 -24.816406 20.789062 -25.015625 20.125 -25.015625 Z M 20.125 -25.015625 "/></g></g></g></svg>